<svg xmlns="http://www.w3.org/2000/svg" viewBox="0 0 1200 320" width="1200" height="320">
  <defs>
    <linearGradient id="logo-badge-bg" x1="0%" y1="0%" x2="100%" y2="100%">
      <stop offset="0%" stop-color="#0B2233"/>
      <stop offset="100%" stop-color="#071824"/>
    </linearGradient>
    <linearGradient id="logo-drift-line" x1="320" y1="230" x2="430" y2="140"
      gradientUnits="userSpaceOnUse">
      <stop offset="0%" stop-color="#F59E0B"/>
      <stop offset="100%" stop-color="#F97316"/>
    </linearGradient>
  </defs>
  <g transform="translate(12 32) scale(0.5)">
    <rect x="20" y="20" width="472" height="472" rx="116" fill="url(#logo-badge-bg)"/>
    <ellipse cx="252" cy="126" rx="204" ry="108" fill="#2E6075" opacity="0.13"/>
    <path d="M 340 96 A 180 180 0 0 1 416 140" fill="none"
      stroke="#20CFE0" stroke-opacity="0.5" stroke-width="18"
      stroke-linecap="round"/>
    <circle cx="256" cy="256" r="180" fill="none"
      stroke="#20CFE0" stroke-opacity="0.7" stroke-width="10"/>
    <circle cx="256" cy="256" r="132" fill="none"
      stroke="#8BC8D8" stroke-opacity="0.35" stroke-width="8"/>
    <circle cx="256" cy="256" r="84" fill="none"
      stroke="#8BC8D8" stroke-opacity="0.35" stroke-width="6"/>
    <path d="M 340 96 L 340 416" fill="none"
      stroke="#8AA3B6" stroke-opacity="0.54" stroke-width="14"
      stroke-linecap="round"/>
    <path d="M 96 322 L 150 284 L 204 294 L 252 248 L 304 252 L 340 220"
      fill="none" stroke="#22C7A0" stroke-width="24"
      stroke-linecap="round" stroke-linejoin="round"/>
    <path d="M 340 220 L 388 170 L 426 144" fill="none"
      stroke="url(#logo-drift-line)" stroke-width="24"
      stroke-linecap="round" stroke-linejoin="round"/>
    <circle cx="340" cy="220" r="16" fill="#E6F1F6"/>
    <circle cx="426" cy="144" r="36" fill="none"
      stroke="#F97316" stroke-opacity="0.45" stroke-width="8"/>
    <circle cx="426" cy="144" r="18" fill="#F97316"/>
    <path d="M 426 94 L 426 114" fill="none" stroke="#D0DCE4"
      stroke-opacity="0.75" stroke-width="6" stroke-linecap="round"/>
    <path d="M 376 144 L 396 144" fill="none" stroke="#D0DCE4"
      stroke-opacity="0.75" stroke-width="6" stroke-linecap="round"/>
  </g>
  <text x="352" y="164" font-family="Avenir Next, Arial, Helvetica, sans-serif"
    font-size="120" font-weight="700" fill="#0B2233">Drift</text>
  <text x="616" y="164" font-family="Avenir Next, Arial, Helvetica, sans-serif"
    font-size="120" font-weight="700" fill="#12758E">Sentinel</text>
  <text x="356" y="244" font-family="Avenir Next, Arial, Helvetica, sans-serif"
    font-size="34" fill="#0B2233" fill-opacity="0.82">
    Unified drift monitoring for enterprise data trust
  </text>
</svg>