<svg xmlns="http://www.w3.org/2000/svg" viewBox="0 0 512 512" width="512" height="512">
  <defs>
    <linearGradient id="badge-bg" x1="0%" y1="0%" x2="100%" y2="100%">
      <stop offset="0%" stop-color="#0B2233"/>
      <stop offset="100%" stop-color="#071824"/>
    </linearGradient>
    <linearGradient id="mark-drift-line" x1="320" y1="230" x2="430" y2="140"
      gradientUnits="userSpaceOnUse">
      <stop offset="0%" stop-color="#F59E0B"/>
      <stop offset="100%" stop-color="#F97316"/>
    </linearGradient>
  </defs>
  <rect x="20" y="20" width="472" height="472" rx="116" fill="url(#badge-bg)"/>
  <ellipse cx="252" cy="126" rx="204" ry="108" fill="#2E6075" opacity="0.13"/>
  <path d="M 340 96 A 180 180 0 0 1 416 140" fill="none"
    stroke="#20CFE0" stroke-opacity="0.5" stroke-width="18"
    stroke-linecap="round"/>
  <circle cx="256" cy="256" r="180" fill="none"
    stroke="#20CFE0" stroke-opacity="0.7" stroke-width="10"/>
  <circle cx="256" cy="256" r="132" fill="none"
    stroke="#8BC8D8" stroke-opacity="0.35" stroke-width="8"/>
  <circle cx="256" cy="256" r="84" fill="none"
    stroke="#8BC8D8" stroke-opacity="0.35" stroke-width="6"/>
  <path d="M 340 96 L 340 416" fill="none"
    stroke="#8AA3B6" stroke-opacity="0.54" stroke-width="14"
    stroke-linecap="round"/>
  <path d="M 96 322 L 150 284 L 204 294 L 252 248 L 304 252 L 340 220"
    fill="none" stroke="#22C7A0" stroke-width="24"
    stroke-linecap="round" stroke-linejoin="round"/>
  <path d="M 340 220 L 388 170 L 426 144" fill="none"
    stroke="url(#mark-drift-line)" stroke-width="24"
    stroke-linecap="round" stroke-linejoin="round"/>
  <circle cx="340" cy="220" r="16" fill="#E6F1F6"/>
  <circle cx="426" cy="144" r="36" fill="none"
    stroke="#F97316" stroke-opacity="0.45" stroke-width="8"/>
  <circle cx="426" cy="144" r="18" fill="#F97316"/>
  <path d="M 426 94 L 426 114" fill="none" stroke="#D0DCE4"
    stroke-opacity="0.75" stroke-width="6" stroke-linecap="round"/>
  <path d="M 376 144 L 396 144" fill="none" stroke="#D0DCE4"
    stroke-opacity="0.75" stroke-width="6" stroke-linecap="round"/>
</svg>